<svg xmlns="http://www.w3.org/2000/svg" viewBox="0 0 117.951 78.49">
  <defs>
    <style>.cls-1,.cls-2,.cls-4{fill:#f35;}.cls-2{opacity:0.65;}.cls-3{opacity:0.75;}.cls-4{opacity:0.4;}</style>
  </defs>
  <g id="Ebene_2">
    <g id="Ebene_1-2">
      <path class="cls-1" d="M39.317,39.245V78.49A39.319,39.319,0,0,0,78.635,39.245Z"/>
      <path class="cls-1" d="M19.722,73.18a39.121,39.121,0,0,0,19.594,5.236V39.247A39.3,39.3,0,0,1,19.722,73.18Z"/>
      <path class="cls-2" d="M39.316,39.246A39.3,39.3,0,0,1,19.722,73.18,39.293,39.293,0,0,1,0,39.245H39.316Z"/>
      <g class="cls-3">
        <path class="cls-1" d="M39.317,39.245H78.635V0A39.319,39.319,0,0,0,39.317,39.245Z"/>
        <path class="cls-1" d="M78.635.075V39.244A39.3,39.3,0,0,1,98.229,5.31,39.12,39.12,0,0,0,78.635.075Z"/>
      </g>
      <path class="cls-4" d="M78.635,39.244A39.3,39.3,0,0,1,98.229,5.31a39.294,39.294,0,0,1,19.722,33.935H78.635Z"/>
    </g>
  </g>
</svg>
