<svg xmlns="http://www.w3.org/2000/svg" viewBox="0 0 413.538 122.365">
  <defs>
    <style>.cls-1,.cls-2,.cls-4{fill:#f35;}.cls-2{opacity:0.65;}.cls-3{opacity:0.75;}.cls-4{opacity:0.4;}</style>
  </defs>
  <g id="Ebene_2">
    <g id="Ebene_1-2">
      <path class="cls-1"
            d="M189.079,110.017l-1.008,9.756q-.143,1.4-2.466,2a24.108,24.108,0,0,1-5.849.594q-9.936,0-9.937-10.116,0-7.776,3.492-11.646T183,96.733a14.8,14.8,0,0,1,3.2.342,9.285,9.285,0,0,1,2.485.864q.936.522.935.99a2.715,2.715,0,0,1-.558,1.277c-.372.565-.666.846-.881.846a4.187,4.187,0,0,1-.882-.431,10,10,0,0,0-1.981-.791,9.882,9.882,0,0,0-2.826-.362,8.122,8.122,0,0,0-7,3.223q-2.358,3.222-2.357,9.09,0,7.848,7.128,7.847,1.331,0,2.628-.125a12.224,12.224,0,0,0,2.051-.341l.792-7.273h-4.248c-.408,0-.612-.265-.612-.792v-.5q0-1.44.9-1.44h6.336Q189.081,109.153,189.079,110.017Z"/>
      <path class="cls-1"
            d="M201.968,119.737q-2.521-2.626-2.521-7.74a22.344,22.344,0,0,1,1.224-7.542,11.861,11.861,0,0,1,4.032-5.581,11.73,11.73,0,0,1,7.309-2.141q4.858,0,7.4,2.61t2.538,7.686a20.319,20.319,0,0,1-1.548,8.37,11.481,11.481,0,0,1-4.374,5.2,12.421,12.421,0,0,1-6.714,1.764Q204.487,122.365,201.968,119.737Zm12.4-1.531a9.076,9.076,0,0,0,3.15-4.175,17.68,17.68,0,0,0,1.117-6.642q0-3.924-1.765-5.923a6.5,6.5,0,0,0-5.147-2,7.863,7.863,0,0,0-6.588,3.133q-2.414,3.132-2.412,9.072,0,3.922,1.746,5.94a6.414,6.414,0,0,0,5.13,2.015A8.1,8.1,0,0,0,214.369,118.206Z"/>
      <path class="cls-1"
            d="M242.467,121.645a1.393,1.393,0,0,1,.179-.54l10.981-23.652c.167-.383.659-.577,1.475-.577h1.044c.84,0,1.308.194,1.4.577l6.048,23.688a1.575,1.575,0,0,1,.036.36c0,.481-.529.719-1.584.719h-.288q-1.261,0-1.4-.575l-1.511-5.9H248.263l-2.664,5.9q-.252.576-1.476.575h-.181Q242.468,122.22,242.467,121.645Zm15.7-8.64-2.628-10.728a8.444,8.444,0,0,1-.217-2.088h-.071q-.432,1.334-.757,2.088l-4.931,10.728Z"/>
      <path class="cls-1"
            d="M273.3,122.023a.661.661,0,0,1-.307-.594l2.484-23.76q.072-.792,1.512-.793h.288a2.071,2.071,0,0,1,1.063.2.662.662,0,0,1,.305.594l-1.08,10.188H290.6l1.08-10.188q.071-.792,1.511-.793h.288a2.067,2.067,0,0,1,1.062.2.661.661,0,0,1,.307.594l-2.485,23.76q-.108.791-1.511.791h-.289a2.073,2.073,0,0,1-1.062-.2.66.66,0,0,1-.306-.594l1.116-10.836H277.278l-1.116,10.836q-.106.791-1.512.791h-.288A2.063,2.063,0,0,1,273.3,122.023Z"/>
      <path class="cls-1"
            d="M304.4,121.951a.829.829,0,0,1-.234-.666l2.412-23.256a1.148,1.148,0,0,1,.324-.828,1.281,1.281,0,0,1,.864-.252h12.708q.612,0,.612.792v.18a3.758,3.758,0,0,1-.18,1.278.7.7,0,0,1-.72.486H309.57l-.864,8.208h9.5c.408,0,.612.265.612.792v.216a3.606,3.606,0,0,1-.18,1.261.7.7,0,0,1-.72.466h-9.5l-.9,8.785h10.656q.612,0,.612.792v.179a3.757,3.757,0,0,1-.18,1.279.7.7,0,0,1-.72.486H305.142A1.13,1.13,0,0,1,304.4,121.951Z"/>
      <path class="cls-1"
            d="M326.777,121.645a1.388,1.388,0,0,1,.181-.54l10.979-23.652c.168-.383.661-.577,1.477-.577h1.044c.84,0,1.308.194,1.4.577l6.049,23.688a1.526,1.526,0,0,1,.035.36c0,.481-.527.719-1.584.719h-.288q-1.26,0-1.4-.575l-1.513-5.9H332.573l-2.663,5.9q-.254.576-1.476.575h-.18Q326.777,122.22,326.777,121.645Zm15.7-8.64-2.628-10.728a8.45,8.45,0,0,1-.216-2.088h-.072q-.433,1.334-.756,2.088l-4.932,10.728Z"/>
      <path class="cls-1"
            d="M357.107,121.951a.829.829,0,0,1-.234-.666l2.412-23.256a1.156,1.156,0,0,1,.324-.828,1.283,1.283,0,0,1,.865-.252h7.74a10.439,10.439,0,0,1,7.29,2.466q2.716,2.466,2.718,7.793a18.653,18.653,0,0,1-1.746,8.641,10.879,10.879,0,0,1-4.59,4.824,13.46,13.46,0,0,1-6.3,1.476h-7.74A1.134,1.134,0,0,1,357.107,121.951Zm8.514-2.538a9.284,9.284,0,0,0,4.608-1.188,8.493,8.493,0,0,0,3.42-3.816,15.114,15.114,0,0,0,1.3-6.7q0-4.247-1.962-6.137a7.331,7.331,0,0,0-5.309-1.89h-5.4l-2.051,19.728Z"/>
      <path
        d="M201.3,56.747v1.381a12.984,12.984,0,0,1-5.842,10.4q-5.292,3.5-13.2,3.495-11.685,0-16.376-4.232-4.326-3.864-4.324-11.408v-1.1h10.856q0,4.231,2.208,5.8t7.636,1.564q7.359,0,7.36-5.336,0-4.416-2.576-5.888a9.269,9.269,0,0,0-3.036-1.1l-9.292-1.564q-12.144-1.932-12.145-15.18,0-7.359,5.383-11.453t13.661-4.1q18.861,0,18.861,16.284v1.2h-10.4q-.186-4.323-2.3-5.887a9.821,9.821,0,0,0-5.933-1.565,9.19,9.19,0,0,0-5.75,1.518,4.291,4.291,0,0,0-1.932,3.358q0,5.242,4.232,5.98l11.131,2.024Q201.3,43.132,201.3,56.747Z"/>
      <path d="M326.322,71.285l-11.96.091V2.1h11.96Z"/>
      <path d="M357.6,71.285l-11.959.091V2.1H357.6Z"/>
      <path
        d="M413.538,71.285h-8l-3.681-6.349-12.788,6.9q-10.673,0-14.351-7.726a28.586,28.586,0,0,1-2.53-8.143,58.329,58.329,0,0,1-.69-9.107q0-4.737.092-6.992t.46-5.245a25.312,25.312,0,0,1,1.057-5.013,22.2,22.2,0,0,1,1.979-4.187,11,11,0,0,1,3.128-3.45q4.14-2.85,10.764-2.851h12.6l11.96-.737ZM401.578,54.54V29.884H392.47q-5.061,0-7.038,3.863t-1.978,11.547q0,7.682,1.886,10.81t7.13,3.128Z"/>
      <path
        d="M280.146,61.326a10.822,10.822,0,0,1-2.584.3q-6.808,0-9.061-3.312t-2.254-10.488h30.636q.183-5.151.183-7.543,0-22.173-19.964-22.172-11.5,0-17.111,6.025t-5.612,19q0,21.8,9.844,26.864,4.782,2.484,13.478,2.484c.841,0,1.652-.042,2.445-.107ZM269.329,30.85a10.194,10.194,0,0,1,7.544-2.806q4.737,0,7.038,2.76t2.3,8.832H266.522Q266.522,33.657,269.329,30.85Z"/>
      <path
        d="M235.428,61.163q-4.14,0-4.14-4.323V29.976h8.464V20.869h-8.464v-10.3h-11.96V20.869h-.016v9.107h.016v27.6a14.174,14.174,0,0,0,3.542,9.66q3.54,4.05,10.35,4.049h7.452V61.163Z"/>
      <path class="cls-1" d="M39.317,39.245V78.49A39.319,39.319,0,0,0,78.635,39.245Z"/>
      <path class="cls-1" d="M19.722,73.18a39.121,39.121,0,0,0,19.594,5.236V39.247A39.3,39.3,0,0,1,19.722,73.18Z"/>
      <path class="cls-2" d="M39.316,39.246A39.3,39.3,0,0,1,19.722,73.18,39.293,39.293,0,0,1,0,39.245H39.316Z"/>
      <g class="cls-3">
        <path class="cls-1" d="M39.317,39.245H78.635V0A39.319,39.319,0,0,0,39.317,39.245Z"/>
        <path class="cls-1" d="M78.635.075V39.244A39.3,39.3,0,0,1,98.229,5.31,39.12,39.12,0,0,0,78.635.075Z"/>
      </g>
      <path class="cls-4" d="M78.635,39.244A39.3,39.3,0,0,1,98.229,5.31a39.294,39.294,0,0,1,19.722,33.935H78.635Z"/>
    </g>
  </g>
</svg>
